# xmcd
#
# Track frame offsets: 
#        182
#        21787
#        40807
#        61875
#        82717
#        103852
#        127312
#        150237
#        172952
#        203447
#        226352
#        247755
#
# Disc length: 3594 seconds
#
# Revision: 6
# Processed by: cddbd v1.5.2PL0 Copyright (c) Steve Scherf et al.
# Submitted via: ExactAudioCopyFreeDBPlugin 1.0
#
DISCID=850e080c
DTITLE=Gary Brown - Rhythm Or Romance
DYEAR=1992
DGENRE=Funk
TTITLE0=Rhythm Or Romance
TTITLE1=Somebody's Been Sleepin' In My Bed
TTITLE2=Your Love
TTITLE3=Precious Moments
TTITLE4=Let's Go Round Again
TTITLE5=Love Song
TTITLE6=Don't Make Me Beg Tonight
TTITLE7=Love, Need, And Want You
TTITLE8=Promise
TTITLE9=Without You
TTITLE10=Meaning Of Love
TTITLE11=Love, Honor, And Obey
EXTD=
EXTT0=
EXTT1=
EXTT2=
EXTT3=
EXTT4=
EXTT5=
EXTT6=
EXTT7=
EXTT8=
EXTT9=
EXTT10=
EXTT11=
PLAYORDER=
